<?xml version="1.0" encoding="UTF-8"?><svg id="Layer_1" xmlns="http://www.w3.org/2000/svg" viewBox="0 0 4961 3771"><path d="M1359.74,2885.31c4.24-4.26,6.66-7.23,9.59-9.56,52.6-41.9,105.34-83.62,157.82-125.67,7.5-6.01,14.24-7.16,23.67-4.46,92.07,26.4,184.31,52.19,276.47,78.26,145.28,41.11,290.54,82.3,435.8,123.48,6.28,1.78,12.47,3.87,18.06,5.62,1.88,5.21-1.35,7.15-3.7,9.2-39.14,34.14-78.42,68.12-117.46,102.38-6.15,5.4-11.92,6.58-19.97,4.66-71.14-17-142.4-33.54-213.61-50.22-76.41-17.9-152.81-35.81-229.22-53.72-90.66-21.25-181.33-42.51-271.99-63.76-15.54-3.64-31.1-7.24-46.62-10.98-5.59-1.35-11.1-3.06-18.85-5.21Z"/><path d="M1671.51,3488.51c-5.34,5.44-8.26,8.89-11.65,11.8-42.92,36.9-86.11,73.48-128.7,110.76-9.21,8.06-17.31,9.25-28.82,5.62-89.46-28.15-179.12-55.64-268.71-83.36-116.27-35.97-232.55-71.95-348.81-107.97-49.56-15.36-99.1-30.81-148.62-46.27-3.75-1.17-7.36-2.81-12.53-4.82,2.85-3.16,4.56-5.78,6.9-7.56,41.41-31.34,82.89-62.59,124.39-93.81,2.62-1.97,5.53-3.56,8.95-5.75,267.96,73.44,536.05,146.92,807.59,221.34Z"/><path d="M1862.05,3319.93c-10.73,13.39-92.13,87.72-117.52,107.55-7.03,1.38-13.95-1.23-20.99-3.06-63.76-16.62-127.53-33.18-191.28-49.85-79.82-20.88-159.62-41.85-239.44-62.78-99.14-25.99-198.28-51.95-297.41-77.96-19.28-5.06-38.51-10.33-59.39-15.93,3.3-3.92,5.34-7.23,8.18-9.59,42.55-35.3,85.38-70.27,127.69-105.86,8.23-6.92,15.4-7.56,25.42-4.64,116.91,34.11,233.97,67.68,350.96,101.52,132.32,38.28,264.6,76.68,396.89,115.07,5.53,1.6,10.95,3.58,16.88,5.53Z"/><path d="M1926.72,3266.35c-36.71-9.08-738.74-230.2-754.98-237.95,3.67-3.36,6.75-6.68,10.32-9.36,28.75-21.61,57.79-42.82,86.26-64.78,8.25-6.36,15.66-7.46,25.71-4.94,101.95,25.61,204.03,50.75,306.08,75.96,116.26,28.72,232.54,57.35,348.8,86.1,38.08,9.42,76.09,19.09,115.4,28.96-1.51,2.92-2.12,5.58-3.78,7.07-43.51,39.26-87.12,78.41-130.73,117.55-.47,.42-1.2,.56-3.07,1.4Z"/><path d="M3089.64,2259.11c-226.71-54.51-451.2-108.48-675.67-162.55-1.66-.4-2.98-2.2-5.28-3.98,4.99-6.64,10.64-12.07,16.84-16.97,24.03-19.02,48.24-37.82,72.04-57.13,6.85-5.56,13.19-6.85,21.94-4.96,56.58,12.27,113.3,23.89,169.98,35.72,59.94,12.51,119.89,24.99,179.82,37.54,80.77,16.92,161.53,33.89,242.29,50.84,27.36,5.74,54.72,11.5,82.07,17.29,2.35,.5,4.65,1.24,7.77,2.08-1.48,2.94-1.92,5.05-3.21,6.2-35.86,31.78-71.8,63.46-108.59,95.92Z"/><path d="M2307.44,2315.64c186.53,39.39,373.54,80.19,562.03,120.58-1.29,2.96-1.65,5.74-3.23,7.16-44.06,39.64-88.25,79.14-132.45,118.63-.95,.85-2.36,1.17-4.38,2.14-3.16-.4-7.19-.49-11.01-1.45-148.43-37.11-296.84-74.3-445.23-111.56-1.81-.45-3.35-1.96-5.85-3.49,.54-3.66,.66-7.57,1.72-11.21,7.44-25.56,15.11-51.04,22.62-76.58,2.44-8.29,4.61-16.66,6.95-24.98,1.78-6.34,2.65-13.08,8.84-19.24Z"/><path d="M3030.65,2306.49c-3.19,3.94-4.86,6.61-7.1,8.66-28.52,26.02-57.29,51.77-85.6,78.01-6.59,6.11-13.11,8.01-21.68,5.95-25.21-6.06-50.52-11.71-75.78-17.59-125-29.08-249.99-58.14-374.97-87.29-30.44-7.1-60.8-14.52-91.19-21.79-2.59-.62-5.22-1.09-7.77-1.85-4.38-1.3-7.4-4.63-5.87-8.85,3.28-9.09,2.81-18.38,2.58-27.59-.38-14.99,2.79-29.04,8.98-42.54,4.13-9.01,8.31-18,12.88-27.89,4.74,.31,9.34,0,13.67,.97,115.52,25.73,231.01,51.62,346.52,77.4,91.52,20.42,183.06,40.72,274.58,61.12,3.03,.68,5.96,1.8,10.76,3.28Z"/><path d="M2362.62,2887.62c-16.09-1.46-204.87-50.06-224.71-58-1.87-7.8-.04-15.05,5.64-21.43,6.2-6.96,15.24-3.13,23.16-6.06,14.71-16.85,20.69-39.14,31.19-58.29,10.83,0,20.71-.27,30.58,.08,8.48,.31,16.26-1.98,21.96-7.79,9.68-9.85,21.93-17.56,26.39-31.2,15.84,1.38,194.82,47.3,223.82,57.36-1.2,2.27-1.83,4.87-3.48,6.35-43.61,39.13-87.31,78.15-131.04,117.15-.95,.85-2.33,1.23-3.51,1.82Z"/><path d="M2665.97,2614.18c-9.69,13.58-62.53,64.46-96.25,92.96-3.68-.55-8.31-.75-12.64-1.98-75.45-21.5-150.87-43.1-226.28-64.76-5.66-1.63-11.15-3.83-16.77-5.78-1.11-5.43-2.31-9.9-2.9-14.46-2.67-20.71-9.4-40-19.64-58.16-6.3-11.17-9.3-23.47-11.3-36-.49-3.04,.44-6.31,.71-9.5,18.09,2.01,346.02,85.23,385.06,97.68Z"/><path d="M2096.49,2657.55c-4.52,13.45-8.08,26.25-13.09,38.46-6.66,16.24-11.07,32.73-10.65,50.39,.09,3.97-.62,7.96-1.02,11.94-.6,6.03-.57,11.26,4.22,16.57,5.04,5.6,4.33,9.5-.84,13.66-6.82,5.5-13.11,11.07-12.71,20.21-18.68-1.11-178.45-41.57-235.97-59.31-1.3-4.39,1.97-5.4,4.91-6.85,6.48-3.21,14.2-5.3,18.98-10.22,5.48-5.65,1.93-13.79,.56-21.02-.57-3.02,.43-6.7,1.73-9.63,3.76-8.49,7.7-16.94,12.18-25.07,5.44-9.86,12.65-15.95,25.51-15.28,14.72,.76,26.49-8.09,37.01-17.38,8.43-7.45,15.74-16.15,22.96-23.68,15.03,.64,121.32,27.65,146.2,37.2Z"/><path d="M2139.88,2480.64c2.11,34.01-11.01,64.94-18.27,97.65-4.13,0-7.52,.73-10.46-.11-31.32-8.94-62.52-18.33-93.88-27.12-9.01-2.53-13.21-7.86-14.3-16.78-1.05-8.56-3.05-17.01-3.87-25.59-.54-5.61-1.89-10-6.64-13.62-3.82-2.92-5.67-7.8-4.36-12.57,1.73-6.3,.4-11.73-2.4-17.27-1.17-2.31-1.74-5.01-2.14-7.6-1.96-12.88,2.43-17.15,15.39-14.96,13.06,2.21,26,4.38,39.43,4.58,7.97,.12,15.9,5.05,23.79,7.95,3.65,1.35,7.11,4.15,10.77,4.38,20.26,1.28,37.78,11.81,57.06,16.33,3.09,.72,5.88,2.77,9.88,4.74Z"/><path d="M1757.66,2567.35c7,2.15,13.85,4.25,21.63,6.64-3.81,14.33-5.28,28.22-11.36,40.81-6.56,13.58-5.41,28.64-8.65,42.85-.48,2.1,2.69,5.65,4.97,7.58,1.85,1.57,5.17,1.27,7.38,2.58,4.3,2.57,6.11,10.47,2.84,14.12-3.48,3.89-7.44,8.09-12.08,10.04-14.77,6.24-22.89,17.14-25.35,32.56-16.14-.94-87.4-18.58-124.7-30.91,1.13-2.23,1.66-4.9,3.29-6.3,45.42-39.15,90.95-78.17,136.5-117.18,.97-.83,2.34-1.21,5.56-2.8Z"/><path d="M2124.02,2411.41c-2.96,0-6.24,.59-9.22-.09-32.81-7.52-65.64-15-99.08-24.96,2.39-3.12,3.67-5.46,5.54-7.13,22.67-20.37,45.42-40.65,68.17-60.94,1.48-1.32,3.01-2.61,4.62-3.75,5.13-3.62,10.18-2.24,12.83,3.8,1.59,3.61,3.6,7.53,3.56,11.29-.15,14.34,5.97,26.86,10.21,39.99,4.25,13.15,8.8,26.43,3.36,41.8Z"/></svg>